<?xml version="1.0" encoding="utf-8"?>
<!-- Generator: Adobe Illustrator 28.1.0, SVG Export Plug-In . SVG Version: 6.00 Build 0)  -->
<svg version="1.1" id="Layer_1" xmlns="http://www.w3.org/2000/svg" xmlns:xlink="http://www.w3.org/1999/xlink" x="0px" y="0px"
	 viewBox="0 0 96.8 101.6" style="enable-background:new 0 0 96.8 101.6;" xml:space="preserve">
<style type="text/css">
	.st0{fill:#231F20;}
	.st1{display:none;}
</style>
<g>
	<path class="st0" d="M46,85.9l2.4,8.2l2.4-8.2l-2.4-2.4L46,85.9z M49.8,86l-1.3,4.5L47.1,86l1.3-1.3L49.8,86z"/>
	<path class="st0" d="M40.2,85.1l1,8.4l3.7-7.7l-2-2.8L40.2,85.1z M41.9,89.9l-0.6-4.7l1.5-1.1l1.1,1.5L41.9,89.9z"/>
	<path class="st0" d="M34.7,83.3l-0.4,8.5l4.9-6.9l-1.5-3L34.7,83.3z M35.5,88.3l0.2-4.7l1.7-0.8l0.8,1.7L35.5,88.3z"/>
	<path class="st0" d="M29.5,80.6l-1.8,8.3l6-6l-1-3.3L29.5,80.6z M29.5,85.7l1-4.6l1.8-0.5l0.5,1.8L29.5,85.7z"/>
	<path class="st0" d="M28.3,76.6l-3.4,0.4L21.7,85l6.9-5L28.3,76.6z M24,82.1l1.7-4.4l1.9-0.2l0.2,1.9L24,82.1z"/>
	<path class="st0" d="M24.3,73l-3.4-0.1l-4.4,7.3l7.7-3.8L24.3,73z M23.4,75.6l-4.3,2.1l2.4-4.1l1.9,0.1L23.4,75.6z"/>
	<path class="st0" d="M20.9,68.7L17.6,68l-5.5,6.5l8.2-2.5L20.9,68.7z M19.6,71.2l-4.5,1.4l3.1-3.6l1.8,0.4L19.6,71.2z"/>
	<path class="st0" d="M18.4,64l-3.2-1.2l-6.5,5.5l8.5-1.1L18.4,64z M12,66.8l3.6-3l1.8,0.7l-0.7,1.8L12,66.8z"/>
	<path class="st0" d="M16.6,58.8l-2.9-1.7l-7.4,4.3l8.5,0.3L16.6,58.8z M9.8,60.6l4.1-2.4l1.6,1l-1,1.6L9.8,60.6z"/>
	<path class="st0" d="M15.7,53.5l-2.6-2.2l-8,3.1l8.4,1.7L15.7,53.5z M8.8,54.1l4.4-1.7l1.4,1.2L13.4,55L8.8,54.1z"/>
	<path class="st0" d="M15.7,48.1l-2.2-2.6l-8.4,1.7l8,3.1L15.7,48.1z M13.4,46.6l1.2,1.4l-1.4,1.2l-4.4-1.7L13.4,46.6z"/>
	<path class="st0" d="M16.6,42.8l-1.7-2.9l-8.5,0.3l7.3,4.3L16.6,42.8z M14.6,40.9l1,1.6l-1.6,1l-4.1-2.4L14.6,40.9z"/>
	<path class="st0" d="M18.4,37.7l-1.2-3.2l-8.5-1.1l6.5,5.5L18.4,37.7z M16.7,35.5l0.7,1.8l-1.8,0.7l-3.6-3L16.7,35.5z"/>
	<path class="st0" d="M20.9,32.9l-0.7-3.3l-8.2-2.5l5.5,6.5L20.9,32.9z M19.6,30.5l0.4,1.8l-1.9,0.4l-3.1-3.6L19.6,30.5z"/>
	<path class="st0" d="M24.3,28.7l-0.1-3.4l-7.7-3.8l4.4,7.3L24.3,28.7z M23.4,26l0.1,1.9L21.6,28l-2.4-4.1L23.4,26z"/>
	<path class="st0" d="M28.3,25l0.4-3.4l-6.9-5l3.1,7.9L28.3,25z M27.8,22.3l-0.2,1.9l-1.9-0.2L24,19.5L27.8,22.3z"/>
	<path class="st0" d="M32.8,22l1-3.3l-6-6l1.8,8.3L32.8,22z M32.8,19.3l-0.5,1.8l-1.8-0.5l-1-4.6L32.8,19.3z"/>
	<path class="st0" d="M37.8,19.9l1.5-3l-4.9-6.9l0.4,8.5L37.8,19.9z M38.2,17.2l-0.8,1.7L35.7,18l-0.2-4.7L38.2,17.2z"/>
	<path class="st0" d="M45,15.8l-3.7-7.7l-1,8.4l2.8,2L45,15.8z M41.3,16.4l0.6-4.7l2.1,4.3l-1.1,1.5L41.3,16.4z"/>
	<path class="st0" d="M50.8,15.7l-2.4-8.2L46,15.7l2.4,2.4L50.8,15.7z M47.1,15.7l1.3-4.5l1.3,4.5L48.4,17L47.1,15.7z"/>
	<path class="st0" d="M56.6,16.6l-1-8.4l-3.7,7.7l2,2.8L56.6,16.6z M55,11.7l0.6,4.7L54,17.5l-1.1-1.5L55,11.7z"/>
	<path class="st0" d="M62.1,18.4l0.4-8.5l-4.9,6.9l1.5,3L62.1,18.4z M61.3,13.3L61.1,18l-1.7,0.8l-0.8-1.7L61.3,13.3z"/>
	<path class="st0" d="M67.3,21.1l1.8-8.3l-6,6l1,3.3L67.3,21.1z M67.4,15.9l-1,4.6l-1.8,0.5L64,19.3L67.4,15.9z"/>
	<path class="st0" d="M68.6,25l3.4-0.4l3.1-7.9l-6.9,5L68.6,25z M72.9,19.5l-1.7,4.4l-1.9,0.2L69,22.3L72.9,19.5z"/>
	<path class="st0" d="M72.6,28.7l3.4,0.1l4.4-7.3l-7.7,3.8L72.6,28.7z M73.5,26l4.3-2.1L75.3,28l-1.9-0.1L73.5,26z"/>
	<path class="st0" d="M75.9,32.9l3.3,0.7l5.5-6.5l-8.2,2.5L75.9,32.9z M77.2,30.5l4.5-1.4l-3.1,3.6l-1.8-0.4L77.2,30.5z"/>
	<path class="st0" d="M78.5,37.7l3.2,1.2l6.5-5.5l-8.5,1.1L78.5,37.7z M84.9,34.9l-3.6,3l-1.8-0.7l0.7-1.8L84.9,34.9z"/>
	<path class="st0" d="M80.3,42.8l2.9,1.7l7.4-4.3L82,39.9L80.3,42.8z M87,41.1l-4.1,2.4l-1.6-1l1-1.6L87,41.1z"/>
	<path class="st0" d="M81.1,48.1l2.6,2.2l8-3.1l-8.4-1.7L81.1,48.1z M88.1,47.5l-4.4,1.7L82.2,48l1.2-1.4L88.1,47.5z"/>
	<path class="st0" d="M81.1,53.5l2.2,2.6l8.4-1.7l-8-3.1L81.1,53.5z M83.4,55l-1.2-1.4l1.4-1.2l4.4,1.7L83.4,55z"/>
	<path class="st0" d="M80.3,58.9l1.7,2.9l8.5-0.3l-7.3-4.3L80.3,58.9z M82.3,60.7l-1-1.6l1.6-1l4.1,2.4L82.3,60.7z"/>
	<path class="st0" d="M78.5,64l1.2,3.2l8.5,1.1l-6.5-5.5L78.5,64z M80.2,66.2l-0.7-1.8l1.8-0.7l3.6,3L80.2,66.2z"/>
	<path class="st0" d="M75.9,68.7l0.7,3.3l8.2,2.5L79.2,68L75.9,68.7z M77.2,71.2l-0.4-1.8l1.9-0.4l3.1,3.6L77.2,71.2z"/>
	<path class="st0" d="M72.6,73l0.1,3.4l7.7,3.8L76,72.8L72.6,73z M73.5,75.6l-0.1-1.9l1.9-0.1l2.4,4.1L73.5,75.6z"/>
	<path class="st0" d="M68.6,76.6L68.2,80l6.9,5L72,77.1L68.6,76.6z M69,79.4l0.2-1.9l1.9,0.2l1.7,4.4L69,79.4z"/>
	<path class="st0" d="M64,79.6l-1,3.3l6,6l-1.8-8.3L64,79.6z M64,82.4l0.5-1.8l1.8,0.5l1,4.6L64,82.4z"/>
	<path class="st0" d="M59.1,81.8l-1.5,3l4.9,6.9l-0.4-8.5L59.1,81.8z M58.6,84.5l0.8-1.7l1.7,0.8l0.2,4.7L58.6,84.5z"/>
	<path class="st0" d="M51.8,85.9l3.7,7.7l1-8.4l-2.8-2L51.8,85.9z M55.5,85.3L55,89.9l-2.1-4.3l1.1-1.5L55.5,85.3z"/>
	<path class="st0" d="M46,81.2l2.4,2.3l2.4-2.3l-2.4-3.6L46,81.2z M48.4,82.7l-1.5-1.5l1.5-2.3l1.5,2.3L48.4,82.7z"/>
	<path class="st0" d="M41,80.4l2,2.7l2.8-1.9l-1.8-4L41,80.4z M43.2,82.2l-1.2-1.7l1.9-2l1.1,2.5L43.2,82.2z"/>
	<path class="st0" d="M37.8,81.8l3-1.4l-1.1-4.2l-3.5,2.7L37.8,81.8z M40,80L38,80.9l-0.9-1.9l2.2-1.7L40,80z"/>
	<path class="st0" d="M36,78.7l-0.4-4.4l-3.9,2.1l1,3.2L36,78.7z M35,75.5l0.2,2.7l-2,0.6l-0.6-2L35,75.5z"/>
	<path class="st0" d="M31.6,76.3l0.3-4.4l-4.1,1.4l0.5,3.3L31.6,76.3z M31.1,73l-0.2,2.7l-2.1,0.2l-0.3-2.1L31.1,73z"/>
	<path class="st0" d="M24.3,73l3.4,0.2l1.1-4.2l-4.3,0.7L24.3,73z M25,70.3l2.7-0.4L27,72.5l-2.1-0.1L25,70.3z"/>
	<path class="st0" d="M26,65.4l-4.4,0l-0.7,3.3l3.3,0.7L26,65.4L26,65.4L26,65.4z M23.7,68.7l-2.1-0.5l0.4-2.1l2.7,0L23.7,68.7z"/>
	<path class="st0" d="M23.9,61.6l-4.3-0.7L18.4,64l3.1,1.3L23.9,61.6z M19.2,63.6l0.7-2l2.7,0.5l-1.5,2.3L19.2,63.6z"/>
	<path class="st0" d="M22.4,57.4l-4.1-1.4l-1.7,2.9l2.9,1.8L22.4,57.4z M17.4,58.6l1.1-1.8l2.6,0.9l-1.9,2L17.4,58.6z"/>
	<path class="st0" d="M18.3,55.7l3.4-2.7l-3.8-2.1l-2.1,2.6L18.3,55.7z M17.9,51.8l2.4,1.3l-2.2,1.7l-1.6-1.4L17.9,51.8z"/>
	<path class="st0" d="M17.9,50.7l3.8-2.1l-3.4-2.7l-2.5,2.2L17.9,50.7z M20.3,48.5l-2.4,1.3l-1.3-1.6l1.6-1.4L20.3,48.5z"/>
	<path class="st0" d="M18.3,45.7l4.1-1.4l-3-3.2l-2.9,1.8L18.3,45.7z M21.1,43.9l-2.6,0.9L17.4,43l1.8-1.1L21.1,43.9z"/>
	<path class="st0" d="M19.6,40.8l4.3-0.7l-2.4-3.7l-3.1,1.3L19.6,40.8z M22.6,39.5L19.9,40l-0.7-2l2-0.8L22.6,39.5z"/>
	<path class="st0" d="M26,36.2l-1.7-4l-3.3,0.7l0.7,3.3L26,36.2z M23.7,32.9l1.1,2.5l-2.7,0l-0.4-2.1L23.7,32.9z"/>
	<path class="st0" d="M28.7,32.7l-1.1-4.2l-3.4,0.2l0.1,3.4L28.7,32.7L28.7,32.7L28.7,32.7z M25,31.3l-0.1-2.1l2.1-0.1l0.7,2.7
		L25,31.3z"/>
	<path class="st0" d="M28.3,25l-0.5,3.3l4.1,1.4l-0.3-4.4L28.3,25z M28.5,27.8l0.3-2.1l2.1,0.2l0.2,2.7L28.5,27.8z"/>
	<path class="st0" d="M36,23L32.8,22l-1,3.2l3.9,2.1L36,23z M35,26.1l-2.4-1.3l0.6-2l2,0.6L35,26.1z"/>
	<path class="st0" d="M39.7,25.5l1.1-4.2l-3-1.4l-1.5,3L39.7,25.5L39.7,25.5L39.7,25.5z M37.1,22.6l0.9-1.9l1.9,0.9l-0.7,2.6
		L37.1,22.6z"/>
	<path class="st0" d="M41,21.3l3,3.2l1.8-4L43,18.6L41,21.3z M44.9,20.6l-1.1,2.5l-1.9-2l1.2-1.7L44.9,20.6z"/>
	<path class="st0" d="M48.4,24.1L48.4,24.1l2.4-3.6l-2.4-2.3L46,20.4L48.4,24.1L48.4,24.1z M48.4,19l1.5,1.5l-1.5,2.3l-1.5-2.3
		L48.4,19z"/>
	<path class="st0" d="M55.8,21.3l-2-2.7l-2.8,1.9l1.8,4L55.8,21.3z M53.7,19.4l1.2,1.7l-1.9,2L52,20.6L53.7,19.4z"/>
	<path class="st0" d="M57.1,25.5l3.5-2.7l-1.5-3l-3,1.4L57.1,25.5L57.1,25.5L57.1,25.5z M58.8,20.7l0.9,1.9l-2.2,1.7l-0.7-2.6
		L58.8,20.7z"/>
	<path class="st0" d="M60.8,23l0.4,4.4l3.9-2.1L64,22L60.8,23z M61.8,26.1l-0.2-2.7l2-0.6l0.6,2L61.8,26.1z"/>
	<path class="st0" d="M68.6,25l-3.3,0.4l-0.3,4.4l4.1-1.4L68.6,25z M65.7,28.6l0.2-2.7l2.1-0.2l0.3,2.1L65.7,28.6z"/>
	<path class="st0" d="M68.2,32.7l4.3-0.7l0.1-3.4l-3.4-0.2L68.2,32.7L68.2,32.7L68.2,32.7z M69.8,29.1l2.1,0.1l-0.1,2.1l-2.7,0.4
		L69.8,29.1z"/>
	<path class="st0" d="M72.6,32.2l-1.7,4l4.4,0l0.7-3.3L72.6,32.2z M74.8,35.5l-2.7,0l1.1-2.5l2.1,0.5L74.8,35.5z"/>
	<path class="st0" d="M78.5,37.7l-3.1-1.3L73,40.1l4.3,0.7L78.5,37.7z M74.2,39.5l1.5-2.3l2,0.8l-0.7,2L74.2,39.5z"/>
	<path class="st0" d="M74.4,44.3l4.1,1.4l1.7-2.9L77.4,41L74.4,44.3L74.4,44.3L74.4,44.3z M77.6,41.9l1.8,1.1l-1.1,1.8l-2.6-0.9
		L77.6,41.9z"/>
	<path class="st0" d="M78.6,45.9l-3.4,2.7l3.8,2.1l2.1-2.6L78.6,45.9z M78.9,49.8l-2.4-1.3l2.2-1.7l1.6,1.4L78.9,49.8z"/>
	<path class="st0" d="M79,50.9L75.1,53l3.4,2.7l2.5-2.2L79,50.9z M76.5,53.1l2.4-1.3l1.3,1.6l-1.6,1.4L76.5,53.1z"/>
	<path class="st0" d="M78.6,55.9l-4.1,1.4l3,3.2l2.9-1.8L78.6,55.9z M75.8,57.7l2.6-0.9l1.1,1.8l-1.8,1.1L75.8,57.7z"/>
	<path class="st0" d="M73,61.6l2.4,3.7l3.1-1.3l-1.2-3.1L73,61.6z M75.7,64.4l-1.5-2.3l2.7-0.5l0.7,2L75.7,64.4z"/>
	<path class="st0" d="M70.9,65.4l1.7,4l3.3-0.7l-0.7-3.3L70.9,65.4L70.9,65.4L70.9,65.4z M74.8,66.2l0.4,2.1l-2.1,0.5L72,66.2
		L74.8,66.2z"/>
	<path class="st0" d="M72.6,73l-0.1-3.4l-4.3-0.7l1.1,4.2L72.6,73z M71.9,70.3l0.1,2.1l-2.1,0.1l-0.7-2.7L71.9,70.3z"/>
	<path class="st0" d="M68.6,76.6l0.5-3.3l-4.1-1.4l0.3,4.4L68.6,76.6z M68.3,73.9l-0.3,2.1L66,75.7L65.7,73L68.3,73.9z"/>
	<path class="st0" d="M60.8,78.7l3.2,0.9l1-3.2l-3.9-2.1L60.8,78.7z M61.8,75.5l2.4,1.3l-0.6,2l-2-0.6L61.8,75.5z"/>
	<path class="st0" d="M56,80.3l3,1.4l1.5-3l-3.5-2.7L56,80.3z M59.7,79.1l-0.9,1.9L56.9,80l0.7-2.6L59.7,79.1z"/>
	<path class="st0" d="M55.8,80.4l-3-3.2l-1.8,4l2.8,1.9L55.8,80.4z M52,81l1.1-2.5l1.9,2l-1.2,1.7L52,81z"/>
	<path class="st0" d="M48.4,24.1l-1,0.9c-0.8,0-1.6,0.1-2.4,0.2L44,24.5l-0.8,1.1c-0.8,0.2-1.6,0.4-2.3,0.6l-1.2-0.6l0,0l0,0
		l-0.6,1.2c-0.7,0.3-1.5,0.6-2.2,1l-1.3-0.4l-0.4,1.3c-0.7,0.4-1.3,0.8-2,1.3L32,29.7L31.8,31c-0.6,0.5-1.2,1-1.7,1.6l-1.3,0.1l0,0
		l0,0l0,1.3c-0.5,0.6-1,1.2-1.5,1.9L26,36.2l0.3,1.3c-0.4,0.7-0.8,1.4-1.1,2.1l-1.2,0.5l0.5,1.2c-0.3,0.7-0.5,1.5-0.8,2.2l-1.1,0.7
		l0.7,1.1c-0.2,0.8-0.3,1.5-0.4,2.3l-1,0.9l0.8,1c0,0.4,0,0.8,0,1.2c0,0.4,0,0.8,0,1.2l-0.8,1l1,0.9c0.1,0.8,0.2,1.6,0.4,2.3
		l-0.7,1.1l1.1,0.7c0.2,0.8,0.5,1.5,0.8,2.2l-0.5,1.2l1.2,0.5c0.3,0.7,0.7,1.4,1.1,2.1L26,65.4h0l0,0l1.3,0.3
		c0.5,0.6,0.9,1.3,1.5,1.9l0,1.3L30,69c0.6,0.6,1.1,1.1,1.8,1.6l0.2,1.3l1.3-0.1c0.6,0.5,1.3,0.9,2,1.3l0.4,1.3l1.3-0.4
		c0.7,0.4,1.4,0.7,2.2,1l0.6,1.2l1.2-0.6c0.8,0.2,1.5,0.4,2.3,0.6l0.8,1.1l1.1-0.8c0.8,0.1,1.6,0.2,2.4,0.2l1,0.9l1-0.9
		c0.8,0,1.6-0.1,2.4-0.2l1.1,0.8l0.8-1.1c0.8-0.2,1.6-0.4,2.3-0.6l1.2,0.6l0.6-1.2c0.7-0.3,1.5-0.6,2.2-1l1.3,0.4l0.4-1.3
		c0.7-0.4,1.3-0.8,2-1.3l1.3,0.1l0.2-1.3c0.6-0.5,1.2-1,1.8-1.6l1.3-0.1l0-1.3c0.5-0.6,1-1.2,1.5-1.9l1.3-0.3l0,0h0l-0.3-1.3
		c0.4-0.7,0.8-1.4,1.1-2.1l1.2-0.5l-0.5-1.2c0.3-0.7,0.6-1.5,0.8-2.2l1.1-0.7l-0.7-1.1c0.2-0.8,0.3-1.5,0.4-2.3l1-0.9l-0.8-1
		c0-0.4,0-0.8,0-1.2c0-0.4,0-0.8,0-1.2l0.8-1l-1-0.9c-0.1-0.8-0.2-1.6-0.4-2.3l0.7-1.1l0,0l0,0l-1.1-0.7c-0.2-0.8-0.5-1.5-0.8-2.2
		l0.5-1.2l-1.2-0.5c-0.3-0.7-0.7-1.4-1.1-2.1l0.3-1.3l-1.3-0.3c-0.5-0.6-0.9-1.3-1.5-1.9l0-1.3l0,0l0,0l-1.3-0.1
		c-0.6-0.6-1.1-1.1-1.7-1.6l-0.2-1.3l-1.3,0.1c-0.6-0.5-1.3-0.9-2-1.3l-0.4-1.3l-1.3,0.4c-0.7-0.4-1.4-0.7-2.2-1l-0.6-1.2l0,0l0,0
		l-1.2,0.6c-0.8-0.2-1.5-0.4-2.3-0.6l-0.8-1.1l-1.1,0.8c-0.8-0.1-1.6-0.2-2.4-0.2L48.4,24.1L48.4,24.1L48.4,24.1z M53.3,57.8
		c-0.1,4.9-3.5,8.4-7.6,9.5c0,0,0,0,0,0c-0.1,0-0.1,0-0.2,0c0,0,0,0,0,0c-0.9,0.2-1.8,0.3-2.7,0.3h0c-0.2,0-0.4,0-0.6,0h0
		c-0.8-0.1-1.6-0.2-2.3-0.5c0,0,0,0,0,0c-0.3-0.1-0.5-0.2-0.8-0.3c0,0,0,0,0,0c-0.7-0.3-1.3-0.6-2-1.1c0,0,0,0,0,0
		c-0.3-0.2-0.5-0.4-0.7-0.6c0,0,0,0,0,0c0,0,0,0,0,0c-0.5-0.5-1.1-1-1.6-1.5c0,0,0,0,0,0c-0.2-0.2-0.4-0.5-0.6-0.7c0,0,0,0,0,0
		c-0.5-0.6-0.9-1.1-1.3-1.8c0,0,0,0,0,0c-0.2-0.3-0.3-0.5-0.5-0.8c0,0,0,0,0,0c-0.4-0.6-0.7-1.3-1-1.9l0,0c-0.1-0.3-0.2-0.6-0.4-0.9
		c0,0,0,0,0,0c-0.2-0.4-0.3-0.8-0.4-1.2c-0.1-0.3-0.2-0.6-0.2-0.9c0,0,0,0,0,0c-0.1-0.3-0.1-0.6-0.2-0.9v0c-0.1-0.7-0.2-1.4-0.3-2.2
		c0,0,0,0,0,0c0-0.3,0-0.6,0-1v0c0-0.1,0-0.2,0-0.4c0-0.6,0-1.2,0.1-1.8v0c0-0.3,0.1-0.6,0.1-0.9c0,0,0,0,0,0
		c0.1-0.7,0.3-1.4,0.5-2.1v0c0.1-0.3,0.2-0.6,0.3-0.9c0,0,0,0,0,0c0.2-0.7,0.5-1.4,0.8-2c0,0,0,0,0,0c0.1-0.3,0.3-0.6,0.4-0.9
		c0,0,0,0,0,0c0.1-0.2,0.3-0.5,0.4-0.7c0.2-0.4,0.5-0.8,0.8-1.2c0,0,0,0,0,0c0.2-0.3,0.4-0.5,0.6-0.8c0,0,0,0,0,0
		c0.4-0.6,0.9-1.1,1.4-1.6c0,0,0,0,0,0c0.2-0.2,0.5-0.5,0.7-0.7c0,0,0,0,0,0c0.5-0.5,1.1-0.9,1.7-1.4c0,0,0,0,0,0
		c0.3-0.2,0.5-0.4,0.8-0.6c0,0,0,0,0,0c0.2-0.1,0.4-0.2,0.6-0.3c-0.1,0.2-0.3,0.5-0.4,0.7c-0.1,0.2-0.3,0.5-0.4,0.8
		c-0.4,0.9-0.8,1.8-1,2.7c0,0,0,0.1,0,0.1c-0.5,1.6-0.7,3.4-0.7,5.2c0,10.4,0.1,20.4,0.1,20.4l0.6,0l0.7,0l6-0.1c0,0,0-3.9,0-8.5
		c0-0.8,0.7-1.5,1.5-1.5h6.7c0.8,0,1.5,0.7,1.5,1.5V57.8z M49.8,34.9C49.8,34.9,49.8,34.8,49.8,34.9c0.9-0.4,1.8-0.6,2.8-0.7h0
		c0.2,0,0.3,0,0.5-0.1h0c0.8-0.1,1.7,0,2.5,0.1h0c0.3,0,0.5,0.1,0.8,0.2c0,0,0,0,0,0c0.7,0.2,1.4,0.4,2.1,0.8c0,0,0,0,0,0
		c0.3,0.1,0.6,0.3,0.8,0.5c0,0,0,0,0,0c0.4,0.3,0.8,0.6,1.2,0.9c0.2,0.1,0.3,0.3,0.5,0.4c0,0,0,0,0,0c0.2,0.2,0.5,0.4,0.7,0.7
		c0,0,0,0,0,0c0.5,0.5,1,1.1,1.4,1.6c0,0,0,0,0,0c0.2,0.3,0.4,0.5,0.6,0.8c0,0,0,0,0,0c0.4,0.6,0.8,1.2,1.2,1.9c0,0,0,0,0,0
		c0.2,0.3,0.3,0.6,0.4,0.9c0,0,0,0,0,0c0.3,0.6,0.6,1.3,0.8,2c0,0,0,0,0,0c0.1,0.2,0.1,0.4,0.2,0.5c0,0,0,0,0,0
		c0,0.1,0.1,0.3,0.1,0.4c0,0,0,0,0,0c0.1,0.3,0.1,0.6,0.2,0.9c0.1,0.4,0.2,0.8,0.2,1.3c0,0,0,0,0,0c0,0.3,0.1,0.6,0.1,1v0
		c0.1,0.6,0.1,1.2,0.1,1.8v0.4c0,0.3,0,0.6,0,1v0c-0.1,0.7-0.1,1.5-0.3,2.2v0c-0.1,0.3-0.1,0.6-0.2,0.9c0,0,0,0,0,0
		c-0.2,0.7-0.4,1.4-0.6,2.1c0,0,0,0,0,0c-0.1,0.3-0.2,0.6-0.4,0.9c0,0,0,0,0,0c-0.3,0.7-0.6,1.3-1,1.9c0,0,0,0,0,0c0,0,0,0,0,0
		c-0.1,0.2-0.3,0.5-0.5,0.7c0,0,0,0,0,0c-0.4,0.6-0.8,1.2-1.3,1.8c0,0,0,0,0,0c-0.2,0.2-0.4,0.5-0.6,0.7c0,0,0,0,0,0
		c-0.5,0.5-1,1-1.6,1.5c0,0,0,0,0,0c-0.2,0.2-0.5,0.4-0.7,0.6c0,0,0,0,0,0c-0.6,0.4-1.2,0.9-1.8,1.2c0.5-0.8,0.9-1.6,1.2-2.4
		c0.1-0.1,0.1-0.3,0.2-0.4c0.8-2.1,1.2-4.3,1.2-6.7c0-7.9-0.1-15.6-0.1-18.9c0-0.3,0-0.5,0-0.7c0-0.6,0-0.9,0-0.9L58,37l-0.3,0
		l-4.5,0.1c0,0,0,3.9,0,8.5c0,0.8-0.7,1.5-1.5,1.5h-6.7c-0.8,0-1.5-0.7-1.5-1.5c0-0.5,0-1,0-1.5c0-0.1,0-0.2,0-0.3
		C43.7,39.5,46.3,36.3,49.8,34.9z"/>
</g>
<path class="st1" d="M146.2,147.3H-49.4c-1.8,0-3.2-1.4-3.2-3.2V88.9c0-1.8,1.4-3.2,3.2-3.2h195.6c1.8,0,3.2,1.4,3.2,3.2v55.2
	C149.4,145.8,148,147.3,146.2,147.3z"/>
</svg>
